<svg xmlns="http://www.w3.org/2000/svg"
 xmlns:xlink="http://www.w3.org/1999/xlink"
 width="40px" height="58px"  viewBox="0 0 40 58">
<path fill-rule="evenodd"  fill="#ffffff"
 d="M20.000183,1.9992065 C10.074463,1.9992065 1.9997559,10.070618 1.9997559,19.990845 C1.9997559,19.990845 1.9997559,38.009644 1.9997559,38.009644 C1.9997559,47.929504 10.074463,56.000122 20.000183,56.000122 C29.925842,56.000122 38.000732,47.92987 38.000732,38.009644 C38.000732,38.009644 38.000732,19.990845 38.000732,19.990845 C38.000732,10.070618 29.92566,1.9992065 20.000183,1.9992065 ZM36.000732,38.009644 C36.000732,46.827087 28.822876,54.000244 20.000183,54.000244 C11.177612,54.000244 3.9997559,46.827087 3.9997559,38.009644 C3.9997559,38.009644 3.9997559,19.990845 3.9997559,19.990845 C3.9997559,11.173706 11.177612,3.9995117 20.000183,3.9995117 C28.822876,3.9995117 36.000732,11.17334 36.000732,19.990845 C36.000732,19.990845 36.000732,38.009644 36.000732,38.009644 ZM20.000183,7.9993286 C19.447876,7.9993286 19.000061,8.446838 19.000061,8.999512 C19.000061,8.999512 19.000061,18.055237 19.000061,18.055237 C19.000061,18.608276 19.447876,19.055725 20.000183,19.055725 C20.55249,19.055725 21.000366,18.608276 21.000366,18.055237 C21.000366,18.055237 21.000366,8.999512 21.000366,8.999512 C21.000061,8.446838 20.55249,7.9993286 20.000183,7.9993286 Z"/>
</svg>